# xmcd CD database file
#
# Track frame offsets:
#	150
#	17842
#	32480
#	52522
#	70255
#	86832
#	102140
#	120672
#	138287
#	155310
#	172262
#	188522
#	208865
#	225202
#	241847
#	258015
#	275160
#	291972
#	307692
#
# Disc length: 4318 seconds
#
# Revision: 5
# Processed by: cddbd v1.5.2PL0 Copyright (c) Steve Scherf et al.
# Submitted via: CDex 1.70beta2
#
DISCID=f410dc13
DTITLE=Claudia Jung - CLAUDIA JUNG BEST OF
DYEAR=2002
DGENRE=Pop
TTITLE0=Claudia Jung - Je t'aime mon amour (Duett mit Richard Clayderman)
TTITLE1=Claudia Jung - Hast Du alles vergessen
TTITLE2=Claudia Jung - Komm und tanz ein letztes Mal mit mir
TTITLE3=Claudia Jung - Du ich liebe Dich
TTITLE4=Claudia Jung - Unter meiner Haut
TTITLE5=Claudia Jung - Stumme Signale
TTITLE6=Claudia Jung - Ich denke immer noch an Dich (Version 2002 - Duett mit Richard Clayderman)
TTITLE7=Claudia Jung - Wer die Sehnsucht kennt
TTITLE8=Claudia Jung - Domani l'amore vincera (Duett mit Rosanna Perinic)
TTITLE9=Claudia Jung - Atemlos
TTITLE10=Claudia Jung - Amore Amore
TTITLE11=Claudia Jung - Diese Nacht soll nie enden
TTITLE12=Claudia Jung - Wo kommen die Tr‰ume her
TTITLE13=Claudia Jung - Schmetterlinge
TTITLE14=Claudia Jung - Das Dunkel der Nacht
TTITLE15=Claudia Jung - Er war wie Du
TTITLE16=Claudia Jung - Ein biﬂchen Melancholie
TTITLE17=Claudia Jung - Laﬂ mich doch nochmal
TTITLE18=Claudia Jung - Und dann tanz ich ganz allein
EXTD=YEAR: 2002
EXTT0=
EXTT1=
EXTT2=
EXTT3=
EXTT4=
EXTT5=
EXTT6=
EXTT7=
EXTT8=
EXTT9=
EXTT10=
EXTT11=
EXTT12=
EXTT13=
EXTT14=
EXTT15=
EXTT16=
EXTT17=
EXTT18=
PLAYORDER=
